<?xml version="1.0"?>
<svg xmlns="http://www.w3.org/2000/svg" xmlns:xlink="http://www.w3.org/1999/xlink" version="1.1" viewBox="0 0 224 224" width="26px" height="26px"><g fill="none" fill-rule="nonzero" stroke="none" stroke-width="1" stroke-linecap="butt" stroke-linejoin="miter" stroke-miterlimit="10" stroke-dasharray="" stroke-dashoffset="0" font-family="none" font-weight="none" font-size="none" text-anchor="none" style="mix-blend-mode: normal"><path d="M0,224v-224h224v224z" fill="none"/><g fill="#ffffff"><g id="surface1"><path d="M112,10.23077c-56.20192,0 -101.76923,45.56731 -101.76923,101.76923c0,56.20193 45.56731,101.76923 101.76923,101.76923c56.20193,0 101.76923,-45.5673 101.76923,-101.76923c0,-56.20192 -45.5673,-101.76923 -101.76923,-101.76923zM133.20193,167.96635c-5.25,2.05288 -9.42308,3.63462 -12.55289,4.71154c-3.12981,1.07692 -6.73077,1.61538 -10.87019,1.61538c-6.32692,0 -11.27404,-1.54808 -14.80769,-4.64424c-3.5,-3.06249 -5.25,-7 -5.25,-11.77884c0,-1.85096 0.13462,-3.73558 0.40385,-5.65385c0.23557,-1.95193 0.67308,-4.10577 1.24519,-6.5625l6.5625,-23.15385c0.57211,-2.22115 1.07692,-4.30769 1.48077,-6.29327c0.40385,-1.98557 0.57211,-3.80288 0.57211,-5.45192c0,-2.92789 -0.60577,-5.01442 -1.81731,-6.15866c-1.24519,-1.17789 -3.5673,-1.75 -7,-1.75c-1.68269,0 -3.43269,0.26923 -5.21634,0.77404c-1.78366,0.53846 -3.29808,1.04327 -4.57692,1.51442l1.75,-7.13462c4.27403,-1.75 8.37981,-3.23077 12.3173,-4.47596c3.90385,-1.24519 7.63943,-1.88462 11.10577,-1.88462c6.29326,0 11.17308,1.54807 14.57211,4.57692c3.39904,3.02884 5.11538,7 5.11538,11.84615c0,1.00961 -0.10096,2.79327 -0.33654,5.3173c-0.23557,2.52404 -0.67308,4.84615 -1.31249,7l-6.52885,23.08654c-0.53846,1.85096 -1.00961,3.97115 -1.44712,6.32692c-0.40385,2.35576 -0.60576,4.17308 -0.60576,5.38462c0,3.0625 0.67308,5.18269 2.05288,6.29327c1.34615,1.11057 3.73558,1.64904 7.13462,1.64904c1.58173,0 3.36538,-0.26923 5.38462,-0.80769c1.98558,-0.57211 3.4327,-1.04327 4.34134,-1.48077zM132.02404,74.24039c-3.02885,2.82692 -6.69712,4.24038 -10.97116,4.24038c-4.27403,0 -7.97596,-1.41346 -11.03846,-4.24038c-3.06249,-2.82692 -4.57692,-6.25962 -4.57692,-10.26443c0,-4.0048 1.54808,-7.47115 4.57692,-10.33172c3.0625,-2.86058 6.76443,-4.27404 11.03846,-4.27404c4.27404,0 7.94231,1.41346 10.97116,4.27404c3.0625,2.86057 4.57692,6.32692 4.57692,10.33172c0,4.00481 -1.51442,7.43751 -4.57692,10.26443z"/></g></g></g></svg>
