<?xml version="1.0" standalone="no"?>
<!DOCTYPE svg PUBLIC "-//W3C//DTD SVG 20010904//EN"
 "http://www.w3.org/TR/2001/REC-SVG-20010904/DTD/svg10.dtd">
<svg version="1.0" xmlns="http://www.w3.org/2000/svg"
 width="264.000000pt" height="264.000000pt" viewBox="0 0 264.000000 264.000000"
 preserveAspectRatio="xMidYMid meet">
<metadata>
Created by potrace 1.11, written by Peter Selinger 2001-2013
</metadata>
<g transform="translate(0.000000,264.000000) scale(0.100000,-0.100000)"
fill="#000000" stroke="none">
<path d="M330 2578 c-125 -22 -224 -123 -250 -257 -11 -60 -14 -991 -3 -991 4
0 78 70 164 156 l157 157 4 151 c3 141 5 155 31 208 32 65 90 121 156 151 38
18 73 22 198 27 l153 5 195 195 c107 107 195 197 195 200 0 8 -953 6 -1000 -2z"/>
<path d="M1545 2390 c-107 -107 -195 -199 -195 -203 0 -4 132 -7 293 -7 325 0
359 -5 435 -61 103 -75 132 -161 132 -388 l0 -156 160 160 160 160 0 217 c0
191 -2 224 -19 268 -30 78 -81 134 -159 172 l-67 33 -272 0 -273 0 -195 -195z"/>
<path d="M1375 1736 c-247 -51 -456 -95 -464 -97 -8 -3 33 -15 90 -28 57 -13
144 -32 192 -44 l89 -20 -434 -434 c-238 -238 -436 -433 -440 -433 -5 0 -8
127 -8 282 l0 283 -163 -163 -162 -162 0 -312 0 -313 26 -55 c34 -74 76 -120
141 -156 53 -29 54 -29 247 -32 l194 -4 134 134 133 133 -142 5 -143 5 449
453 c247 248 452 452 455 452 4 0 33 -82 66 -181 l60 -181 17 93 c30 166 37
209 93 530 30 174 55 322 55 328 0 6 -8 11 -17 10 -10 0 -220 -42 -468 -93z"/>
<path d="M2368 1333 l-157 -158 -3 -305 -3 -305 -27 -57 c-35 -75 -104 -141
-174 -167 -51 -20 -76 -21 -352 -21 l-297 0 -135 -135 -135 -135 597 0 c581 0
599 1 653 21 75 28 146 100 174 174 21 55 21 68 19 651 l-3 594 -157 -157z"/>
</g>
</svg>
